<?xml version="1.0" standalone="no"?>
<!DOCTYPE svg PUBLIC "-//W3C//DTD SVG 20010904//EN"
 "http://www.w3.org/TR/2001/REC-SVG-20010904/DTD/svg10.dtd">
<svg version="1.0" xmlns="http://www.w3.org/2000/svg"
 width="3464.000000pt" height="3464.000000pt" viewBox="0 0 3464.000000 3464.000000"
 preserveAspectRatio="xMidYMid meet">

<g transform="translate(0.000000,3464.000000) scale(0.100000,-0.100000)"
fill="#000000" stroke="none">
<path d="M0 17320 l0 -17320 17320 0 17320 0 0 17320 0 17320 -17320 0 -17320
0 0 -17320z m23008 8184 c324 -336 472 -487 841 -863 218 -223 412 -421 431
-441 35 -37 584 -600 881 -905 86 -88 219 -225 295 -304 77 -79 181 -186 232
-238 50 -53 92 -102 92 -109 0 -13 -168 -184 -431 -437 -79 -77 -245 -239
-369 -360 -124 -122 -339 -332 -479 -467 -139 -135 -297 -288 -350 -340 -53
-52 -146 -142 -206 -200 -141 -134 -775 -751 -1015 -987 -215 -211 -350 -343
-631 -615 -112 -108 -262 -254 -334 -324 -71 -69 -197 -192 -280 -272 -314
-304 -788 -766 -1013 -987 -347 -340 -389 -381 -498 -485 -54 -52 -241 -233
-414 -401 -173 -168 -359 -348 -413 -400 -129 -123 -278 -268 -695 -677 -540
-530 -680 -667 -782 -764 -52 -50 -219 -211 -370 -357 -151 -146 -333 -322
-404 -391 -72 -69 -241 -234 -376 -366 -135 -133 -261 -256 -280 -274 -19 -18
-139 -134 -266 -259 -127 -124 -305 -298 -396 -386 -91 -88 -317 -308 -504
-490 -186 -181 -384 -373 -438 -425 -55 -52 -208 -201 -340 -331 -133 -130
-324 -317 -426 -416 -102 -99 -279 -272 -395 -384 -115 -113 -266 -258 -335
-324 -261 -251 -571 -560 -595 -594 -13 -20 -36 -67 -50 -106 -72 -198 17
-364 195 -365 64 0 99 12 313 109 86 39 159 71 162 71 2 0 46 20 97 44 51 24
103 46 115 50 12 4 52 22 90 40 37 18 79 37 93 41 14 4 54 22 90 40 36 18 76
36 90 40 14 4 68 28 120 52 52 24 104 48 115 52 11 5 47 21 80 36 33 15 107
47 165 72 58 25 109 49 114 54 6 5 16 9 23 9 6 0 54 20 105 43 51 24 122 56
158 72 36 15 97 43 137 61 40 19 75 34 78 34 6 0 157 67 273 121 46 21 88 39
93 39 5 0 50 20 100 45 50 25 94 45 99 45 5 0 58 22 117 49 59 27 203 90 318
141 116 51 228 100 250 110 22 10 67 30 100 45 33 15 74 33 90 40 17 7 57 25
90 40 33 15 74 33 90 40 17 7 57 25 90 40 33 15 103 45 155 67 52 22 106 46
120 53 14 7 176 80 360 160 184 81 373 165 418 186 46 22 88 39 92 39 4 0 52
20 106 46 162 74 342 154 348 154 3 0 44 18 91 40 47 22 88 40 90 40 3 0 42
17 87 39 46 21 153 69 238 106 188 82 311 137 408 181 41 19 78 34 82 34 5 0
51 20 103 45 53 25 98 45 101 45 3 0 54 22 113 49 59 27 185 83 278 124 94 41
184 82 200 90 38 20 241 107 248 107 3 0 43 17 89 39 94 44 345 156 398 178
19 8 58 25 86 39 28 13 54 24 58 24 3 0 43 17 89 39 45 21 107 49 137 61 30
12 88 38 128 56 40 19 75 34 78 34 3 0 43 18 90 40 47 22 87 40 89 40 7 0 117
49 145 65 14 7 50 23 80 35 29 11 76 32 104 45 176 82 343 151 359 147 10 -3
33 -19 50 -36 79 -78 472 -483 672 -691 121 -127 238 -248 260 -271 22 -22
128 -132 235 -245 106 -112 253 -265 325 -339 73 -74 185 -191 251 -259 65
-68 162 -167 214 -221 158 -161 351 -360 640 -660 642 -664 838 -867 1051
-1085 97 -99 198 -202 224 -230 114 -121 218 -229 338 -354 108 -110 127 -135
114 -143 -10 -5 -714 -4 -1779 2 -1746 11 -4005 23 -6528 35 -718 3 -1692 10
-2165 15 -473 6 -1119 10 -1435 10 -694 -1 -2891 19 -2939 26 -18 3 -43 15
-55 27 -11 13 -97 103 -191 202 -93 99 -222 234 -285 300 -120 125 -378 399
-514 545 -44 47 -116 123 -160 170 -45 47 -142 150 -216 230 -74 79 -148 158
-165 175 -16 17 -73 76 -124 131 -52 54 -154 160 -225 234 -72 75 -160 167
-196 205 -35 39 -100 108 -144 155 -44 47 -116 123 -160 170 -44 47 -111 119
-151 160 -131 138 -215 237 -215 251 0 18 411 424 1054 1040 209 201 266 256
545 527 150 147 314 307 365 355 50 49 163 159 251 246 88 86 212 206 275 266
63 60 216 208 341 329 124 122 326 318 450 437 123 119 306 297 406 395 99 99
264 259 365 356 100 98 247 240 324 315 78 76 208 201 289 278 81 77 182 174
224 215 42 42 204 199 361 349 157 151 375 363 485 472 110 109 225 222 256
251 49 46 546 528 679 658 54 53 518 502 629 608 91 87 606 588 670 652 130
129 663 645 670 650 5 3 152 145 327 316 176 171 337 327 359 348 38 36 535
521 836 816 132 129 449 435 549 530 27 25 155 149 286 276 132 128 257 249
279 270 162 154 358 345 586 568 146 144 405 397 575 563 356 346 373 369 355
467 -13 69 -30 102 -73 142 -81 77 -164 84 -298 28 -47 -20 -105 -44 -130 -53
-25 -10 -61 -25 -80 -33 -41 -18 -428 -175 -480 -194 -19 -7 -120 -47 -225
-90 -104 -42 -217 -87 -250 -99 -33 -13 -145 -57 -250 -100 -104 -42 -206 -82
-225 -89 -53 -20 -790 -315 -825 -330 -16 -7 -196 -79 -400 -160 -203 -81
-417 -167 -475 -190 -58 -24 -123 -50 -145 -59 -22 -8 -76 -29 -120 -47 -44
-18 -136 -55 -205 -82 -69 -27 -150 -60 -180 -73 -30 -13 -109 -44 -175 -69
-113 -44 -142 -56 -262 -106 -49 -20 -222 -89 -303 -120 -93 -36 -456 -181
-485 -194 -16 -7 -95 -39 -175 -70 -80 -32 -154 -61 -165 -66 -11 -4 -63 -25
-115 -45 -52 -21 -124 -50 -160 -65 -36 -16 -83 -35 -105 -44 -22 -8 -110 -43
-195 -77 -85 -34 -177 -70 -205 -81 -27 -10 -64 -26 -82 -33 -17 -8 -34 -15
-37 -15 -3 0 -25 -9 -49 -19 -23 -10 -62 -27 -87 -36 -197 -77 -441 -174 -475
-190 -16 -7 -48 -20 -70 -28 -40 -14 -437 -172 -570 -227 -85 -35 -222 -89
-455 -181 -96 -38 -184 -73 -195 -79 -11 -5 -65 -27 -120 -49 -150 -58 -255
-100 -305 -121 -130 -56 -496 -202 -549 -220 -33 -12 -69 -20 -79 -18 -10 2
-44 32 -76 68 -72 79 -84 93 -321 355 -104 116 -216 239 -250 275 -34 36 -88
94 -121 130 -32 35 -85 92 -116 125 -31 33 -78 84 -105 114 -79 89 -328 366
-349 388 -19 20 -123 133 -280 305 -49 53 -201 219 -339 369 -137 150 -268
293 -290 318 -67 78 -245 272 -315 346 -65 69 -284 307 -344 374 -17 19 -42
47 -56 62 -15 14 -57 62 -95 105 -39 44 -72 81 -75 84 -8 8 -296 322 -374 409
-38 42 -99 108 -135 146 -36 39 -88 95 -115 125 -113 126 -226 249 -298 325
-43 44 -78 87 -78 96 0 15 96 17 1068 22 587 3 3279 11 5982 17 2703 6 5016
12 5140 13 124 1 798 2 1498 2 l1272 0 128 -131z"/>
</g>
</svg>
